<svg xmlns="http://www.w3.org/2000/svg" viewBox="0 0 349 349" enable-background="new 0 0 349 349"><path d="M299.36 39h-11.718v-7c0-17.645-14.355-32-32-32s-32 14.355-32 32v7h-98.285v-7c0-17.645-14.355-32-32-32s-32 14.355-32 32v7H49.64C24.32 39 3.714 59.604 3.714 84.93V303.07C3.713 328.397 24.318 349 49.64 349h249.722c25.322 0 45.926-20.603 45.926-45.93V84.93c0-25.326-20.604-45.93-45.927-45.93zm-55.717-7c0-6.617 5.383-12 12-12s12 5.383 12 12v25c0 6.617-5.383 12-12 12s-12-5.383-12-12V32zM81.357 32c0-6.617 5.383-12 12-12s12 5.383 12 12v25c0 6.617-5.383 12-12 12s-12-5.383-12-12V32zm230.528 271.07c0 6.91-5.62 12.528-12.523 12.528H49.642c-6.907 0-12.526-5.62-12.526-12.527V155.03h274.77v148.04zM114.836 200.253h8.89v79.98c0 6.212 5.053 11.267 11.265 11.267h.218c6.214 0 11.27-5.055 11.27-11.268v-91.465c0-6.213-5.057-11.268-11.27-11.268h-20.37c-6.214 0-11.27 5.054-11.27 11.267v.216c0 6.214 5.055 11.27 11.268 11.27zM234.164 240.796h-3.78v-8.63c0-6.212-5.058-11.267-11.272-11.267h-.215c-6.214 0-11.27 5.054-11.27 11.267v8.63h-15.353l26.7-46.41c2-3.472 1.995-7.787-.01-11.26-2.007-3.47-5.745-5.627-9.758-5.627h-.236c-4.02 0-7.764 2.165-9.77 5.65l-35.493 61.717c-.98 1.704-1.5 3.646-1.5 5.62v1.793c0 6.212 5.055 11.267 11.267 11.267h34.152v16.685c0 6.213 5.056 11.268 11.27 11.268h.215c6.216 0 11.272-5.055 11.272-11.268v-16.685h3.78c6.214 0 11.27-5.054 11.27-11.267v-.217c0-6.212-5.055-11.267-11.268-11.267z"/></svg>