<svg xmlns="http://www.w3.org/2000/svg" width="400" height="400" viewBox="0 0 400 400"><path d="M199.992 0C89.72 0 0 89.72 0 200s89.72 200 199.992 200C310.272 400 400 310.28 400 200S310.273 0 199.992 0zm0 373.77C104.18 373.77 26.23 295.816 26.23 200c0-95.817 77.95-173.77 173.762-173.77 95.824 0 173.776 77.954 173.776 173.77 0 95.816-77.952 173.77-173.776 173.77zM196.293 125.97c9.656 0 17.488-7.832 17.488-17.49 0-9.656-7.83-17.488-17.487-17.488-9.664 0-17.488 7.832-17.488 17.49 0 9.656 7.824 17.488 17.488 17.488zM224.09 279.586h-10.97V154.564c0-7.243-5.87-13.116-13.112-13.116h-24.094c-7.242 0-13.113 5.873-13.113 13.116s5.872 13.115 13.114 13.115h10.977v111.906h-10.976c-7.242 0-13.113 5.872-13.113 13.115s5.872 13.116 13.114 13.116h48.176c7.246 0 13.117-5.873 13.117-13.115s-5.87-13.114-13.117-13.114z"/></svg>