<svg xmlns="http://www.w3.org/2000/svg" width="612" height="612" viewBox="0 0 612 612"><path d="M269.442 595.31c10.35 10.35 22.373 15.354 36.39 15.354 14.36 0 26.206-5.17 36.064-15.355 9.844-10.18 15.022-22.04 15.022-36.058H254.42c0 14.018 5.007 26.035 15.022 36.057zM608.66 512.17c-23.912-35.25-41.883-73.072-54.084-112.854-12.173-39.682-23.015-97.162-32.723-172.28-5.648-43.74-23.555-80.644-43.406-104.505-9.865-11.866-21.112-22.6-34.055-32.052-25.45-18.59-46.077-27.38-70.117-34.39-3.333-15.69-11.41-28.633-24.367-39.06-12.757-10.272-27.38-15.693-44.076-15.693-16.36 0-31.048 5.342-43.734 15.692-12.693 10.35-20.706 23.37-24.04 39.062-24.04 7.008-44.78 15.64-70.452 34.388-12.72 9.295-24.046 20.022-34.054 32.053-19.708 23.7-37.416 60.766-43.07 104.507-9.703 75.117-20.85 132.498-33.05 172.28-12.174 39.68-29.988 77.503-53.757 112.853C1.403 515.555 0 518.844 0 522.52c0 3.006.634 5.7 2.336 8.684 3.64 6.367 9.018 9.68 16.36 9.68h574.94c7.345 0 12.687-3.34 16.36-9.68 1.333-3.006 2.003-6.012 2.003-9.018 0-3.676-1.204-6.868-3.34-10.016zm-556.57-8.348c20.028-34.39 35.228-72.154 45.742-112.52 10.527-40.436 20.086-93.857 29.375-159.593 8.077-57.133 34.02-93.032 66.44-114.522 23.008-15.243 42.695-23.22 65.78-28.377 8.305-1.858 13.69-9.344 13.69-17.692v-.67c0-17.72 15.022-32.052 32.715-32.052 18.363 0 32.722 14.36 32.722 32.053v.668c0 8.348 5.934 15.635 14.36 17.693 22.97 5.62 42.978 12.815 65.437 28.378 11.263 7.807 21.24 16.468 29.718 26.375 17.23 20.144 31.675 51.092 36.726 88.145 8.967 65.78 18.697 118.86 29.38 159.26 10.686 40.4 26.042 78.13 46.08 112.853H52.088z"/></svg>