<svg xmlns="http://www.w3.org/2000/svg" viewBox="0 0 525.153 525.153" enable-background="new 0 0 525.153 525.153"><path d="M495.963 364.675c-36.454 0-71.443-5.8-104.155-16.586-10.22-3.283-21.575-.898-29.737 6.914l-64.177 64.178C215.335 377.28 147.656 309.82 105.623 227.02l64.177-64.484c8.162-7.615 10.547-18.97 7.265-29.19-10.788-32.713-16.586-67.7-16.586-104.155C160.48 13.197 147.284 0 131.29 0H29.19C13.194 0 0 13.195 0 29.19c0 273.955 222.008 495.963 495.963 495.963 15.995 0 29.19-13.194 29.19-29.19v-102.1c0-15.994-13.195-29.188-29.19-29.188zm-29.19-102.1h58.38C525.152 117.526 407.627 0 262.575 0v58.38c112.886 0 204.197 91.31 204.197 204.196zm-116.628 0h58.248c0-80.522-65.294-145.816-145.817-145.816v58.247c48.38 0 87.57 39.19 87.57 87.57z"/></svg>