<svg xmlns="http://www.w3.org/2000/svg" width="400.613" height="400.613" viewBox="0 0 400.613 400.613"><path d="M277.664 208.01H261.54c31.147-20.152 51.805-55.194 51.805-94.972C313.345 50.708 262.637 0 200.307 0S87.27 50.708 87.27 113.038c0 39.778 20.655 74.82 51.803 94.972H122.95c-41.434 0-75.143 33.707-75.143 75.14v104.964c0 6.904 5.597 12.5 12.5 12.5h280c6.903 0 12.5-5.596 12.5-12.5V283.15c0-41.433-33.71-75.14-75.143-75.14zM112.27 113.038C112.27 64.494 151.76 25 200.306 25c48.544 0 88.038 39.494 88.038 88.038 0 48.543-39.494 88.036-88.038 88.036-48.545 0-88.038-39.493-88.038-88.036zm124.61 106.96l-36.573 36.574L163.734 220c11.477 3.934 23.78 6.074 36.573 6.074s25.097-2.14 36.573-6.076zm90.927 155.615h-34v-60.06c0-6.903-5.597-12.5-12.5-12.5s-12.5 5.597-12.5 12.5v60.06h-137v-60.06c0-6.903-5.597-12.5-12.5-12.5s-12.5 5.597-12.5 12.5v60.06h-34V283.15c0-27.647 22.494-50.14 50.143-50.14h18.44l50.078 50.077c2.44 2.44 5.64 3.66 8.84 3.66s6.395-1.22 8.838-3.66l50.08-50.078h18.438c27.648 0 50.143 22.49 50.143 50.14v92.463z"/></svg>