<svg xmlns="http://www.w3.org/2000/svg" width="512" height="512" viewBox="0 0 512 512"><path d="M256 0C114.61 0 0 114.61 0 256c0 141.392 114.61 256 256 256 141.392 0 256-114.608 256-256C512 114.61 397.392 0 256 0zm0 472c-119.297 0-216-96.702-216-216 0-119.297 96.703-216 216-216 119.298 0 216 96.703 216 216 0 119.298-96.702 216-216 216zM384 170.922c-4.312 2.562-17.248 7.67-29.312 8.953 7.735-4.49 19.188-19.203 22.016-30.89-7.436 5.11-24.516 12.562-32.95 12.562 0 0 0 .023.016.04C334.14 150.75 320.608 144 305.577 144c-29.154 0-52.81 25.46-52.81 56.875 0 4.36.48 8.595 1.357 12.672h-.017c-39.562-1.094-85.81-22.446-111.874-59-16 29.852-2.156 63.046 16.015 75.14-6.203.517-17.67-.765-23.06-6.406-.376 19.798 8.483 46.05 40.734 55.563-6.22 3.61-17.19 2.58-21.984 1.78 1.687 16.75 23.437 38.624 47.202 38.624-8.47 10.534-37.373 29.706-73.14 23.596C152.297 358.783 180.624 368 210.607 368c85.205 0 151.376-74.36 147.814-166.093 0-.11-.03-.22-.03-.313 0-.25.03-.5.03-.72 0-.28-.03-.56-.03-.858 7.75-5.688 18.154-15.782 25.608-29.094z"/></svg>