<svg xmlns="http://www.w3.org/2000/svg"><symbol viewBox="0 0 306 306" id="shape-arrow-down"><title>arrow-down</title> <g id="arrow-down-expand-more"> <polygon points="270.3,58.65 153,175.95 35.7,58.65 0,94.35 153,247.35 306,94.35"/> </g> </symbol><symbol viewBox="0 0 349 349" id="shape-calendar"><title>calendar</title> <g> <path d="M299.361,39h-11.719v-7c0-17.645-14.355-32-32-32s-32,14.355-32,32v7h-98.285v-7c0-17.645-14.355-32-32-32
			c-17.645,0-32,14.355-32,32v7H49.641C24.318,39,3.713,59.604,3.713,84.929v218.143C3.713,328.397,24.318,349,49.641,349h249.721
			c25.322,0,45.926-20.603,45.926-45.929V84.929C345.287,59.604,324.684,39,299.361,39z M243.643,32c0-6.617,5.383-12,12-12
			c6.617,0,12,5.383,12,12v25c0,6.617-5.383,12-12,12c-6.617,0-12-5.383-12-12V32z M81.357,32c0-6.617,5.383-12,12-12
			c6.617,0,12,5.383,12,12v25c0,6.617-5.383,12-12,12c-6.617,0-12-5.383-12-12V32z M311.885,303.071
			c0,6.908-5.619,12.527-12.523,12.527H49.641c-6.906,0-12.525-5.62-12.525-12.527V155.03h274.77V303.071z"/> <path d="M114.836,200.253h8.889v79.979c0,6.213,5.054,11.268,11.266,11.268h0.217c6.214,0,11.269-5.055,11.269-11.268v-91.465
			c0-6.213-5.056-11.268-11.269-11.268h-20.371c-6.213,0-11.268,5.055-11.268,11.268v0.216
			C103.568,195.197,108.623,200.253,114.836,200.253z"/> <path d="M234.164,240.796h-3.781v-8.629c0-6.213-5.057-11.268-11.271-11.268h-0.215c-6.214,0-11.27,5.055-11.27,11.268v8.629
			h-15.353l26.701-46.409c1.999-3.472,1.994-7.787-0.012-11.261c-2.006-3.47-5.744-5.626-9.757-5.626h-0.236
			c-4.021,0-7.764,2.165-9.769,5.651l-35.494,61.716c-0.98,1.704-1.499,3.646-1.499,5.619v1.794c0,6.212,5.054,11.267,11.266,11.267
			h34.152v16.685c0,6.213,5.056,11.268,11.27,11.268h0.215c6.215,0,11.271-5.055,11.271-11.268v-16.685h3.781
			c6.213,0,11.268-5.054,11.268-11.267v-0.217C245.432,245.851,240.377,240.796,234.164,240.796z"/> </g> </symbol><symbol viewBox="0 0 90 90" id="shape-chart"><title>chart</title> <g> <path d="M80,0H69c-2.762,0-4,2.238-4,5v85h20V5C85,2.238,82.762,0,80,0z M50,30H39c-2.762,0-4,2.238-4,5v55 h20V35C55,32.238,52.762,30,50,30z M20,60H9c-2.762,0-4,2.238-4,5v25h20V65C25,62.238,22.762,60,20,60z"/> </g> </symbol><symbol viewBox="0 0 448.8 448.8" id="shape-check"><title>check</title> <g> <g id="check-check"> <polygon points="142.8,323.85 35.7,216.75 0,252.45 142.8,395.25 448.8,89.25 413.1,53.55 		"/> </g> </g> </symbol><symbol viewBox="0 0 612 612" id="shape-clock"><title>clock</title> <g> <g id="clock-clock"> <g> <path d="M306,0C136.992,0,0,136.992,0,306s136.992,306,306,306s306-137.012,306-306S475.008,0,306,0z M306,573.157
				C158.451,573.157,38.843,453.55,38.843,306C38.843,158.451,158.451,38.843,306,38.843c147.55,0,267.157,119.608,267.157,267.157
				C573.157,453.55,453.55,573.157,306,573.157z M325.125,115.955h-37.657l0.593,209.782l132.077,112.952l23.313-32.876
				l-118.326-99.221V115.955z"/> </g> </g> </g>                </symbol><symbol viewBox="0 0 612 612" id="shape-close"><title>close</title> <g> <g id="close-cross"> <g> <polygon points="612,36.004 576.521,0.603 306,270.608 35.478,0.603 0,36.004 270.522,306.011 0,575.997 35.478,611.397 306,341.411 576.521,611.397 612,575.997 341.459,306.011"/> </g> </g> </g> </symbol><symbol viewBox="0 0 25.625 25.625" id="shape-comment"><title>comment</title> <g> <path style="" d="M12.812,0.435C5.736,0.435,0,5.499,0,11.747c0,3.168,1.479,6.028,3.855,8.082
			c-0.521,3.01-3.883,4.23-3.652,5.059c2.84,1.175,8.529-1.412,9.918-2.083c0.869,0.164,1.768,0.255,2.691,0.255
			c7.076,0,12.813-5.064,12.813-11.313S19.888,0.435,12.812,0.435z M11.904,12.218c0,3.076-1.361,4.802-4.043,5.129
			c-0.006,0.001-0.01,0.001-0.016,0.001c-0.029,0-0.061-0.011-0.082-0.031c-0.027-0.023-0.043-0.058-0.043-0.094V15.66
			c0-0.046,0.025-0.088,0.064-0.109c1.223-0.667,1.834-1.717,1.865-3.207H7.845c-0.068,0-0.125-0.056-0.125-0.125V8.286
			c0-0.069,0.057-0.125,0.125-0.125h3.934c0.068,0,0.125,0.056,0.125,0.125V12.218z M18.869,12.218c0,3.029-1.205,4.563-4.033,5.128
			c-0.008,0.001-0.016,0.002-0.024,0.002c-0.029,0-0.057-0.01-0.08-0.028c-0.029-0.023-0.045-0.06-0.045-0.097V15.66
			c0-0.046,0.025-0.088,0.064-0.109c1.223-0.667,1.834-1.717,1.865-3.207h-1.804c-0.068,0-0.125-0.056-0.125-0.125V8.286
			c0-0.069,0.057-0.125,0.125-0.125h3.932c0.07,0,0.125,0.056,0.125,0.125V12.218z"/> </g> </symbol><symbol viewBox="0 0 612 612" id="shape-eye"><title>eye</title> <g> <g> <path d="M601.54,278.748c-6.587-7.757-13.571-14.997-20.271-21.605c-38.843-38.268-80.536-70.24-126.632-94.064
				c-33.015-17.06-65.411-28.299-96.724-33.9c-18.883-3.375-36.226-4.318-51.514-4.318c-15.954,0-33.652,0.844-52.52,4.318
				c-31.66,5.835-64.078,17.095-96.716,33.9c-44.806,23.08-86.804,54.789-126.632,94.064c-7.7,7.587-14.352,14.571-20.272,21.605
				c-13.685,16.238-13.671,37.594,0,53.838c16.245,19.316,37.942,39.482,65.142,61.158c57.888,46.104,114.613,75.387,170.175,87.441
				c19.556,4.184,39.885,5.955,60.823,5.955c20.272,0,40.261-1.771,59.824-5.955c56.214-12.125,113.06-41.197,170.834-87.441
				c28.973-23.193,50.096-43.893,64.482-61.158C615.409,315.945,615.565,295.262,601.54,278.748z M573.624,308.656
				c-14.628,17.953-34.836,36.553-59.83,56.506c-52.449,41.877-103.971,69.084-155.214,79.789c-18.89,3.9-36.227,5.318-52.181,5.318
				h-1c-16.287,0-33.284-1.488-51.521-5.318c-50.57-10.777-102.566-37.324-155.881-79.789
				c-25.129-20.018-44.869-38.887-59.157-56.506c-2.326-1.66-2.326-3.652,0-5.978c1.66-2.326,4.566-5.736,8.637-9.977
				c4.24-4.403,7.317-7.644,8.977-9.636c38.552-37.893,77.94-66.468,117.662-86.414c31.745-15.947,60.504-26.491,86.414-30.916
				c14.976-2.552,30.249-3.985,45.869-3.985c14.954,0,29.923,1.262,45.529,3.985c26.271,4.588,55.102,15.11,86.421,30.916
				c40.473,20.421,79.437,48.854,116.995,86.414c8.637,8.644,14.741,15.188,18.279,19.613
				C575.411,304.912,575.284,306.996,573.624,308.656z"/> <path d="M306.399,189.008c-32.241,0-60.164,11.295-83.095,34.234c-22.931,22.931-34.234,50.521-34.234,82.755
				c0,32.241,11.217,59.583,34.234,82.429c22.853,22.689,50.854,33.9,83.095,33.9c32.234,0,59.49-11.295,82.096-33.9
				c22.931-22.932,34.233-50.188,34.233-82.429c0-32.234-11.388-59.739-34.233-82.755
				C365.804,200.389,338.633,189.008,306.399,189.008z M362.564,362.502c-15.62,15.621-34.233,23.264-56.165,23.264
				c-22.271,0-41.218-7.977-56.838-23.598c-15.621-15.619-23.598-34.566-23.598-56.171c0-22.265,7.977-40.877,23.598-56.499
				c15.621-15.621,34.567-23.598,56.838-23.598c22.265,0,40.793,8.055,56.165,23.598c15.543,15.706,23.271,34.234,23.271,56.499
				C385.835,327.936,378.185,346.881,362.564,362.502z"/> </g> </g> </symbol><symbol viewBox="0 0 512 512" id="shape-facebook"><title>facebook</title> <g> <path d="M256,0C114.609,0,0,114.609,0,256c0,141.391,114.609,256,256,256c141.391,0,256-114.609,256-256 C512,114.609,397.391,0,256,0z M256,472c-119.297,0-216-96.703-216-216S136.703,40,256,40s216,96.703,216,216S375.297,472,256,472z "/> <path d="M316.75,216.812h-44.531v-32.5c0-9.969,10.312-12.281,15.125-12.281c4.781,0,28.767,0,28.767,0v-43.859L283.141,128 c-44.983,0-55.25,32.703-55.25,53.672v35.141H195.25V262h32.641c0,58.016,0,122,0,122h44.328c0,0,0-64.641,0-122h37.656 L316.75,216.812z"/> </g> </symbol><symbol viewBox="0 0 971.986 971.986" id="shape-filter"><title>filter</title> <g> <path d="M370.216,459.3c10.2,11.1,15.8,25.6,15.8,40.6v442c0,26.601,32.1,40.101,51.1,21.4l123.3-141.3 c16.5-19.8,25.6-29.601,25.6-49.2V500c0-15,5.7-29.5,15.8-40.601L955.615,75.5c26.5-28.8,6.101-75.5-33.1-75.5h-873 c-39.2,0-59.7,46.6-33.1,75.5L370.216,459.3z"/> </g> </symbol><symbol viewBox="0 0 400 400" id="shape-info"><title>info</title> <g> <g> <path d="M199.992,0C89.719,0,0,89.72,0,200s89.719,200,199.992,200C310.273,400,400,310.28,400,200S310.273,0,199.992,0z
				 M199.992,373.77C104.18,373.77,26.23,295.816,26.23,200c0-95.817,77.949-173.769,173.762-173.769
				c95.824,0,173.776,77.953,173.776,173.769C373.769,295.816,295.816,373.77,199.992,373.77z"/> <path d="M196.293,125.97c9.656,0,17.488-7.832,17.488-17.489c0-9.657-7.832-17.489-17.488-17.489
				c-9.664,0-17.488,7.832-17.488,17.489C178.805,118.138,186.629,125.97,196.293,125.97z"/> <path d="M224.09,279.586h-10.969V154.564c0-7.243-5.871-13.116-13.113-13.116h-24.094c-7.242,0-13.113,5.873-13.113,13.116
				s5.871,13.115,13.113,13.115h10.977v111.907h-10.977c-7.242,0-13.113,5.872-13.113,13.115c0,7.242,5.871,13.115,13.113,13.115
				h48.176c7.246,0,13.117-5.873,13.117-13.115C237.207,285.458,231.336,279.586,224.09,279.586z"/> </g> </g> </symbol><symbol viewBox="0 0 512 512" id="shape-linkedin"><title>linkedin</title> <g> <path d="M256,0C114.609,0,0,114.609,0,256c0,141.391,114.609,256,256,256c141.391,0,256-114.609,256-256 C512,114.609,397.391,0,256,0z M256,472c-119.297,0-216-96.703-216-216S136.703,40,256,40s216,96.703,216,216S375.297,472,256,472z "/> <path d="M128.094,383.891h48v-192h-48V383.891z M320.094,191.891c-41.094,0.688-61.312,30.641-64,32v-32h-48v192h48v-112 c0-4.108,10.125-37,48-32c20.344,1.328,31.312,28.234,32,32v112l47.812,0.219V251.188 C382.219,232,372.625,192.578,320.094,191.891z M152.094,127.891c-13.25,0-24,10.734-24,24s10.75,24,24,24s24-10.734,24-24 S165.344,127.891,152.094,127.891z"/> </g> </symbol><symbol viewBox="0 0 466.583 466.582" id="shape-location"><title>location</title> <g> <path d="M233.292,0c-85.1,0-154.334,69.234-154.334,154.333c0,34.275,21.887,90.155,66.908,170.834
		c31.846,57.063,63.168,104.643,64.484,106.64l22.942,34.775l22.941-34.774c1.317-1.998,32.641-49.577,64.483-106.64
		c45.023-80.68,66.908-136.559,66.908-170.834C387.625,69.234,318.391,0,233.292,0z M233.292,233.291c-44.182,0-80-35.817-80-80
		s35.818-80,80-80c44.182,0,80,35.817,80,80S277.473,233.291,233.292,233.291z"/> </g>                </symbol><symbol viewBox="0 0 354.965 354.965" id="shape-logout"><title>logout</title> <g> <g> <g> <path d="M177.483,176.365c-6.903,0-12.5-5.597-12.5-12.5V12.5c0-6.903,5.597-12.5,12.5-12.5c6.903,0,12.5,5.597,12.5,12.5
					v151.365C189.983,170.768,184.387,176.365,177.483,176.365z"/> </g> <g> <path d="M177.483,354.965c-87.831,0-159.286-71.456-159.286-159.285c0-35.124,11.209-68.431,32.417-96.32
					c20.515-26.979,49.637-47.061,82-56.545c6.625-1.949,13.569,1.855,15.511,8.479c1.941,6.625-1.855,13.569-8.48,15.511
					C82.857,83.449,43.196,136.443,43.196,195.68c0,74.045,60.24,134.285,134.286,134.285c74.045,0,134.286-60.24,134.286-134.285
					c0-59.237-39.661-112.231-96.449-128.875c-6.625-1.941-10.421-8.886-8.479-15.511c1.94-6.625,8.885-10.426,15.511-8.479
					c32.364,9.484,61.484,29.566,82,56.545c21.208,27.89,32.417,61.196,32.417,96.32C336.77,283.509,265.314,354.965,177.483,354.965
					z"/> </g> </g> </g> </symbol><symbol viewBox="0 0 223.413 223.413" id="shape-next"><title>next</title> <g> <g> <g> <polygon style="fill:#010002;" points="57.179,223.413 51.224,217.276 159.925,111.71 51.224,6.127 57.179,0 172.189,111.71"/> </g> </g> </g> </symbol><symbol viewBox="0 0 612 612" id="shape-notifications"><title>notifications</title> <g> <g> <path d="M269.442,595.309c10.35,10.35,22.373,15.355,36.391,15.355c14.36,0,26.205-5.17,36.063-15.355
				c9.844-10.18,15.022-22.039,15.022-36.057H254.42C254.42,573.27,259.427,585.287,269.442,595.309z"/> <path d="M608.659,512.17c-23.911-35.25-41.882-73.072-54.083-112.854c-12.173-39.682-23.015-97.162-32.723-172.279
				c-5.648-43.742-23.555-80.645-43.406-104.506c-9.865-11.867-21.112-22.601-34.055-32.053
				c-25.449-18.59-46.077-27.38-70.117-34.389c-3.333-15.692-11.41-28.634-24.367-39.062c-12.757-10.271-27.38-15.692-44.076-15.692
				c-16.361,0-31.048,5.342-43.734,15.692c-12.693,10.349-20.706,23.37-24.04,39.062c-24.04,7.009-44.781,15.642-70.452,34.389
				c-12.721,9.295-24.046,20.022-34.054,32.053c-19.708,23.698-37.416,60.765-43.071,104.506
				c-9.702,75.117-20.849,132.498-33.05,172.279C45.258,438.998,27.444,476.82,3.675,512.17C1.403,515.555,0,518.844,0,522.52
				c0,3.006,0.634,5.699,2.336,8.684c3.64,6.367,9.018,9.68,16.361,9.68h574.94c7.344,0,12.686-3.34,16.36-9.68
				c1.332-3.006,2.002-6.012,2.002-9.018C612,518.51,610.796,515.318,608.659,512.17z M52.089,503.822
				c20.029-34.389,35.229-72.154,45.743-112.52c10.527-40.436,20.086-93.857,29.375-159.593
				c8.077-57.132,34.019-93.031,66.441-114.521c23.007-15.243,42.694-23.221,65.779-28.377c8.305-1.859,13.69-9.345,13.69-17.693
				v-0.669c0-17.722,15.022-32.053,32.715-32.053c18.363,0,32.722,14.36,32.722,32.053v0.669c0,8.348,5.934,15.635,14.359,17.693
				c22.972,5.62,42.979,12.814,65.438,28.377c11.262,7.807,21.24,16.468,29.717,26.375c17.23,20.144,31.675,51.092,36.726,88.145
				c8.967,65.779,18.697,118.859,29.381,159.259c10.685,40.4,26.041,78.131,46.078,112.854H52.089z"/> </g> </g> </symbol><symbol viewBox="0 0 525.153 525.153" id="shape-phone"><title>phone</title> <g> <path d="M495.963,364.675c-36.454,0-71.443-5.799-104.155-16.586c-10.219-3.282-21.575-0.897-29.737,6.915l-64.178,64.178 c-82.558-41.903-150.237-109.363-192.271-192.162l64.178-64.484c8.162-7.615,10.547-18.971,7.265-29.19 c-10.788-32.713-16.586-67.701-16.586-104.155c0-15.995-13.194-29.19-29.19-29.19H29.19C13.194,0,0,13.194,0,29.19 c0,273.955,222.008,495.963,495.963,495.963c15.995,0,29.19-13.194,29.19-29.19V393.864 C525.153,377.869,511.958,364.675,495.963,364.675z M466.773,262.576h58.379C525.153,117.525,407.628,0,262.576,0v58.379 C375.462,58.379,466.773,149.69,466.773,262.576z M350.145,262.576h58.248c0-80.523-65.294-145.817-145.817-145.817v58.248 C310.956,175.007,350.145,214.197,350.145,262.576z"/> </g> </symbol><symbol viewBox="0 0 533.333 533.333" id="shape-pie-chart"><title>pie-chart</title> <g> <path d="M262.3,300V66.667C133.434,66.667,28.967,171.133,28.967,300c0,128.866,104.467,233.333,233.333,233.333 c128.867,0,233.333-104.467,233.333-233.333c0-37.518-8.868-72.96-24.603-104.366L262.3,300z M504.365,128.968 C466.058,52.501,386.983,0,295.634,0v233.333L504.365,128.968z"/> </g> </symbol><symbol viewBox="0 0 197.402 197.402" id="shape-prev"><title>prev</title> <g> <g> <g> <polygon style="fill:#010002;" points="146.883,197.402 45.255,98.698 146.883,0 152.148,5.418 56.109,98.698 152.148,191.98 "/> </g> </g> </g> </symbol><symbol viewBox="0 0 400.613 400.613" id="shape-profile"><title>profile</title> <g> <path d="M277.664,208.01h-16.123c31.146-20.152,51.804-55.194,51.804-94.972C313.345,50.708,262.637,0,200.307,0
			S87.269,50.708,87.269,113.038c0,39.778,20.656,74.82,51.804,94.972H122.95c-41.434,0-75.143,33.707-75.143,75.141v104.963
			c0,6.904,5.597,12.5,12.5,12.5h280c6.903,0,12.5-5.596,12.5-12.5V283.15C352.807,241.717,319.098,208.01,277.664,208.01z
			 M112.269,113.038c0-48.544,39.493-88.038,88.038-88.038c48.544,0,88.038,39.494,88.038,88.038
			c0,48.543-39.494,88.036-88.038,88.036C151.762,201.074,112.269,161.581,112.269,113.038z M236.88,219.998l-36.573,36.574
			l-36.573-36.573c11.477,3.935,23.779,6.075,36.573,6.075S225.404,223.934,236.88,219.998z M327.807,375.613h-34v-60.059
			c0-6.904-5.597-12.5-12.5-12.5s-12.5,5.596-12.5,12.5v60.059h-137v-60.059c0-6.904-5.597-12.5-12.5-12.5s-12.5,5.596-12.5,12.5
			v60.059h-34V283.15c0-27.647,22.494-50.141,50.143-50.141h18.439l50.079,50.078c2.441,2.441,5.64,3.661,8.839,3.661
			s6.396-1.22,8.839-3.661l50.079-50.078h18.439c27.648,0,50.143,22.492,50.143,50.141V375.613z"/> </g> </symbol><symbol viewBox="0 0 35 35" id="shape-smartphone86"><title>smartphone86</title> <g> <path d="M25.302,0H9.698c-1.3,0-2.364,1.063-2.364,2.364v30.271C7.334,33.936,8.398,35,9.698,35h15.604
		c1.3,0,2.364-1.062,2.364-2.364V2.364C27.666,1.063,26.602,0,25.302,0z M15.004,1.704h4.992c0.158,0,0.286,0.128,0.286,0.287
		c0,0.158-0.128,0.286-0.286,0.286h-4.992c-0.158,0-0.286-0.128-0.286-0.286C14.718,1.832,14.846,1.704,15.004,1.704z M17.5,33.818
		c-0.653,0-1.182-0.529-1.182-1.183s0.529-1.182,1.182-1.182s1.182,0.528,1.182,1.182S18.153,33.818,17.5,33.818z M26.021,30.625
		H8.979V3.749h17.042V30.625z"/> </g>                </symbol><symbol viewBox="0 0 112 112" id="shape-sync"><title>sync</title> <g> <path d="M17.512,58.482l-11.6,0.762C4.409,36.116,18.805,15.112,40.907,8.13c12.955-4.083,26.978-2.669,38.892,3.766L90.935,0
  		l2.969,33.012l-34.967,1.167l12.575-13.436c-8.519-3.752-18.148-4.345-27.1-1.507C27.407,24.589,16.365,40.721,17.512,58.482z
  		 M106.085,52.761l-11.604,0.761c1.162,17.724-9.894,33.876-26.896,39.242C58.636,95.588,49.003,95,40.501,91.261l12.567-13.448
  		L18.12,78.99L21.083,112l11.159-11.915c7.382,3.967,15.558,6.095,23.795,6.095c5.053,0,10.146-0.779,15.044-2.312
  		C93.216,96.871,107.612,75.855,106.085,52.761z"/> </g> </symbol><symbol viewBox="0 0 51.413 51.413" id="shape-telephone"><title>telephone</title> <g> <path d="M25.989,12.274c8.663,0.085,14.09-0.454,14.823,9.148h10.564c0-14.875-12.973-16.88-25.662-16.88
			c-12.69,0-25.662,2.005-25.662,16.88h10.482C11.345,11.637,17.398,12.19,25.989,12.274z"/> <path d="M5.291,26.204c2.573,0,4.714,0.154,5.19-2.377c0.064-0.344,0.101-0.734,0.101-1.185H10.46H0
			C0,26.407,2.369,26.204,5.291,26.204z"/> <path d="M40.88,22.642h-0.099c0,0.454,0.039,0.845,0.112,1.185c0.502,2.334,2.64,2.189,5.204,2.189
			c2.936,0,5.316,0.193,5.316-3.374H40.88z"/> <path d="M35.719,20.078v-1.496c0-0.669-0.771-0.711-1.723-0.711h-1.555c-0.951,0-1.722,0.042-1.722,0.711
			v1.289v1h-11v-1v-1.289c0-0.669-0.771-0.711-1.722-0.711h-1.556c-0.951,0-1.722,0.042-1.722,0.711v1.496v1.306
			C12.213,23.988,4.013,35.073,3.715,36.415l0.004,8.955c0,0.827,0.673,1.5,1.5,1.5h40c0.827,0,1.5-0.673,1.5-1.5v-9
			c-0.295-1.303-8.493-12.383-11-14.987V20.078z M19.177,37.62c-0.805,0-1.458-0.652-1.458-1.458s0.653-1.458,1.458-1.458
			s1.458,0.652,1.458,1.458S19.982,37.62,19.177,37.62z M19.177,32.62c-0.805,0-1.458-0.652-1.458-1.458s0.653-1.458,1.458-1.458
			s1.458,0.652,1.458,1.458S19.982,32.62,19.177,32.62z M19.177,27.621c-0.805,0-1.458-0.652-1.458-1.458
			c0-0.805,0.653-1.458,1.458-1.458s1.458,0.653,1.458,1.458C20.635,26.969,19.982,27.621,19.177,27.621z M25.177,37.62
			c-0.805,0-1.458-0.652-1.458-1.458s0.653-1.458,1.458-1.458c0.806,0,1.458,0.652,1.458,1.458S25.983,37.62,25.177,37.62z
			 M25.177,32.62c-0.805,0-1.458-0.652-1.458-1.458s0.653-1.458,1.458-1.458c0.806,0,1.458,0.652,1.458,1.458
			S25.983,32.62,25.177,32.62z M25.177,27.621c-0.805,0-1.458-0.652-1.458-1.458c0-0.805,0.653-1.458,1.458-1.458
			c0.806,0,1.458,0.653,1.458,1.458C26.635,26.969,25.983,27.621,25.177,27.621z M31.177,37.62c-0.806,0-1.458-0.652-1.458-1.458 s0.652-1.458,1.458-1.458s1.458,0.652,1.458,1.458S31.983,37.62,31.177,37.62z M31.177,32.62c-0.806,0-1.458-0.652-1.458-1.458 s0.652-1.458,1.458-1.458s1.458,0.652,1.458,1.458S31.983,32.62,31.177,32.62z M31.177,27.621c-0.806,0-1.458-0.652-1.458-1.458 c0-0.805,0.652-1.458,1.458-1.458s1.458,0.653,1.458,1.458C32.635,26.969,31.983,27.621,31.177,27.621z"/> </g> </symbol><symbol viewBox="0 0 512 512" id="shape-twitter"><title>twitter</title> <g> <path d="M256,0C114.609,0,0,114.609,0,256c0,141.392,114.609,256,256,256c141.392,0,256-114.608,256-256 C512,114.609,397.392,0,256,0z M256,472c-119.297,0-216-96.702-216-216c0-119.297,96.703-216,216-216c119.298,0,216,96.703,216,216 C472,375.298,375.298,472,256,472z"/> <path d="M384,170.922c-4.312,2.562-17.248,7.671-29.312,8.953c7.735-4.491,19.188-19.203,22.016-30.89 c-7.436,5.109-24.516,12.562-32.95,12.562c0,0,0,0.023,0.016,0.039C334.141,150.75,320.608,144,305.577,144 c-29.154,0-52.81,25.461-52.81,56.875c0,4.36,0.481,8.595,1.357,12.672h-0.017c-39.562-1.094-85.811-22.446-111.874-59 c-16,29.852-2.156,63.046,16.015,75.141c-6.203,0.516-17.671-0.766-23.061-6.407c-0.375,19.797,8.484,46.048,40.735,55.562 c-6.221,3.61-17.19,2.579-21.984,1.781c1.687,16.75,23.437,38.623,47.202,38.623c-8.47,10.534-37.373,29.706-73.141,23.596 C152.298,358.782,180.625,368,210.608,368c85.205,0,151.376-74.359,147.814-166.093c0-0.11-0.031-0.219-0.031-0.313 c0-0.25,0.031-0.5,0.031-0.719c0-0.281-0.031-0.562-0.031-0.859C366.141,194.328,376.546,184.234,384,170.922z"/> </g> </symbol><symbol viewBox="0 0 347.708 347.708" id="shape-users"><title>users</title> <g> <g> <path d="M90.258,170.26l1.261-1.18l1.267,1.18c11.082,10.434,23.368,16.187,34.54,16.187c11.736,0,23.857-5.104,35.053-14.748
				l0.937-0.793l2.459,1.198c2.084,1.9,5.822,4.627,7.509,5.449l2.306,1.123l-0.252,0.252l0.882,0.528
				c2.117,1.249,4.375,2.463,6.951,3.754c2.594,1.146,4.828,2.018,7.206,2.798c0.456,0.162,11.511,3.729,24.121,9.577l2.252,0.685
				c11.974,4.563,17.041,10.995,17.222,11.218c18.591,27.586,21.719,87.838,22.02,94.575c-0.138,9.415-2.811,11.865-3.524,12.327
				c-41.662,18.651-104.61,23.497-116.791,24.266l-0.333,0.019l-0.354-0.091c-0.408-0.132-0.832-0.191-1.348-0.191h-0.006
				l-0.429,0.018c-3.327,0.234-6.089,0.343-8.659,0.343h-2.018c-7.587-0.457-75.459-4.9-118.895-24.224
				c-0.88-0.372-3.456-3.339-3.633-11.979c0.006-0.643,2.243-65.687,21.75-94.666c0.952-1.2,6.266-7.374,16.864-11.433
				c9.323-2.858,32.375-10.509,44.985-19.636c0.531-0.324,1.06-0.864,1.618-1.429C86.133,174.38,88.051,172.319,90.258,170.26z
				 M220.082,186.53l-1.723-0.498c-2.822-1.31-5.801-2.606-8.875-3.861c4.335-2.03,7.89-4.023,10.532-5.945
				c0.433-0.246,0.853-0.678,1.249-1.093c0.961-1.023,2.233-2.402,3.734-3.804l0.805-0.739l0.781,0.756
				c8.299,7.791,17.449,12.066,25.796,12.066c8.779,0,17.835-3.801,26.169-10.994l0.601-0.493l1.676,0.811
				c1.537,1.42,4.329,3.44,5.578,4.064l1.441,0.697l-0.168,0.18l0.912,0.529c1.586,0.942,3.279,1.849,5.177,2.785
				c1.945,0.865,3.614,1.525,5.368,2.102c0.342,0.115,8.503,2.738,17.918,7.098l1.663,0.518c8.581,3.271,12.311,7.781,12.677,8.25
				c13.871,20.572,16.104,65.141,16.314,70.1c-0.102,6.888-2.012,8.659-2.491,8.966c-26.098,11.679-63.555,16.062-79.317,17.456
				c-1.424-20.453-6.468-68.635-23.329-93.699l-0.715-0.858C238.439,196.69,230.957,190.697,220.082,186.53z M210.318,112.073
				l0.295-0.351c1.32-0.964,1.969-2.459,1.717-4.002c-3.135-18.828-1.104-26.724-0.396-28.703
				c5.465-16.768,22.662-24.583,26.025-25.967c0.685-0.259,1.993-0.652,3.387-0.886l0.42-0.105l2.594-0.135l0.024,0.18l0.78-0.069
				c0.589-0.048,1.153-0.135,1.544-0.222l0.87-0.195c0.553,0.018,7.344,0.892,17.186,3.903l6.93,2.387
				c12.599,3.72,18.435,10.668,19.516,12.076c10.118,11.493,7.41,28.772,4.876,38.062c-0.276,1.15-0.108,2.318,0.553,3.272
				l0.559,0.721c0.714,0.952,1.356,4.744-0.835,12.928c-0.408,2.48-1.333,4.471-2.654,5.795c-0.54,0.558-0.895,1.285-1.021,2.125
				c-3.423,20.059-21.39,42.487-40.305,42.487c-16.08,0-34.407-20.639-37.698-42.487c-0.132-0.834-0.486-1.561-1.08-2.225
				c-1.333-1.39-2.204-3.419-2.738-6.482C209.267,118.505,209.099,113.917,210.318,112.073z M70.479,90.453l0.435-0.504
				c1.693-1.222,2.51-3.15,2.204-5.122c-4.246-25.512-1.478-36.125-0.517-38.788c7.377-22.665,30.64-33.252,35.212-35.134
				c0.955-0.37,2.732-0.904,4.606-1.204l0.504-0.117l3.837-0.216l0.012,0.246l0.826-0.087c0.769-0.072,1.513-0.183,2.393-0.363
				l0.871-0.207c0.714,0.006,9.691,1.138,23.238,5.281l9.323,3.204c17.023,5.035,24.956,14.462,26.409,16.336
				c13.691,15.546,10.04,38.935,6.642,51.497c-0.391,1.447-0.156,2.96,0.66,4.188l0.757,0.973c1.249,1.672,1.718,7.269-1.068,17.627
				c-0.564,3.384-1.82,6.125-3.663,7.944c-0.667,0.721-1.108,1.66-1.297,2.714c-4.633,27.121-28.943,57.457-54.542,57.457
				c-21.761,0-46.573-27.913-51.05-57.438c-0.147-1.051-0.583-2.018-1.357-2.847c-1.858-1.928-3.05-4.705-3.777-8.83
				C68.983,99.295,68.77,93.047,70.479,90.453z"/> </g> </g> </symbol></svg>