<svg xmlns="http://www.w3.org/2000/svg" viewBox="0 0 25.625 25.625" enable-background="new 0 0 25.625 25.625"><path d="M12.812.435C5.736.435 0 5.5 0 11.747c0 3.168 1.48 6.028 3.855 8.082-.52 3.01-3.883 4.23-3.652 5.058 2.84 1.175 8.53-1.412 9.918-2.083.87.164 1.77.255 2.692.255 7.076 0 12.813-5.064 12.813-11.313S19.888.435 12.812.435zm-.908 11.783c0 3.076-1.36 4.802-4.043 5.13h-.015c-.03 0-.06-.01-.082-.03-.027-.024-.043-.06-.043-.095V15.66c0-.046.025-.088.064-.11 1.223-.666 1.834-1.716 1.865-3.206H7.844c-.068 0-.125-.056-.125-.125V8.285c0-.07.057-.125.125-.125h3.934c.067 0 .124.057.124.126v3.932zm6.965 0c0 3.03-1.206 4.563-4.034 5.128l-.024.002c-.03 0-.057-.01-.08-.028-.03-.023-.045-.06-.045-.097V15.66c0-.046.025-.088.064-.11 1.224-.666 1.835-1.716 1.866-3.206h-1.804c-.068 0-.125-.056-.125-.125V8.285c0-.07.057-.125.125-.125h3.932c.07 0 .125.057.125.126v3.932z"/></svg>