<svg xmlns="http://www.w3.org/2000/svg" width="512" height="512" viewBox="0 0 512 512"><path d="M256 0C114.61 0 0 114.61 0 256s114.61 256 256 256 256-114.61 256-256S397.39 0 256 0zm0 472c-119.297 0-216-96.703-216-216S136.703 40 256 40s216 96.703 216 216-96.703 216-216 216zM128.094 383.89h48v-192h-48v192zm192-192c-41.094.69-61.312 30.642-64 32v-32h-48v192h48v-112c0-4.107 10.125-37 48-32 20.344 1.33 31.312 28.235 32 32v112l47.812.22V251.188c-1.687-19.188-11.28-58.61-63.812-59.297zm-168-64c-13.25 0-24 10.735-24 24s10.75 24 24 24 24-10.733 24-24-10.75-24-24-24z"/></svg>