<svg xmlns="http://www.w3.org/2000/svg" width="354.965" height="354.965" viewBox="0 0 354.965 354.965"><path d="M177.483 176.365c-6.903 0-12.5-5.597-12.5-12.5V12.5c0-6.903 5.597-12.5 12.5-12.5s12.5 5.597 12.5 12.5v151.365c0 6.903-5.596 12.5-12.5 12.5zM177.483 354.965c-87.83 0-159.286-71.456-159.286-159.285 0-35.124 11.21-68.43 32.417-96.32 20.515-26.98 49.637-47.06 82-56.545 6.625-1.95 13.57 1.855 15.51 8.48 1.942 6.624-1.854 13.568-8.48 15.51C82.858 83.45 43.197 136.443 43.197 195.68c0 74.045 60.24 134.285 134.286 134.285 74.045 0 134.286-60.24 134.286-134.285 0-59.237-39.66-112.23-96.45-128.875-6.624-1.94-10.42-8.886-8.478-15.51 1.94-6.626 8.885-10.427 15.51-8.48 32.365 9.484 61.485 29.566 82 56.545 21.21 27.89 32.418 61.196 32.418 96.32.002 87.83-71.454 159.285-159.285 159.285z"/></svg>