<svg xmlns="http://www.w3.org/2000/svg" width="347.708" height="347.708" viewBox="0 0 347.708 347.708"><path d="M90.258 170.26l1.26-1.18 1.268 1.18c11.082 10.434 23.368 16.187 34.54 16.187 11.736 0 23.857-5.104 35.053-14.748l.936-.794 2.46 1.198c2.083 1.9 5.82 4.627 7.508 5.45l2.306 1.122-.252.252.882.528c2.117 1.25 4.375 2.463 6.95 3.754 2.595 1.146 4.83 2.018 7.207 2.798.456.162 11.51 3.73 24.12 9.577l2.253.685c11.974 4.563 17.04 10.995 17.222 11.218 18.59 27.586 21.72 87.838 22.02 94.575-.138 9.415-2.81 11.865-3.524 12.327-41.662 18.65-104.61 23.497-116.79 24.266l-.334.02-.354-.092c-.408-.132-.832-.19-1.348-.19h-.006l-.43.017c-3.326.235-6.088.344-8.658.344h-2.018c-7.587-.457-75.46-4.9-118.895-24.224-.88-.372-3.456-3.34-3.633-11.98.006-.642 2.243-65.686 21.75-94.665.952-1.2 6.266-7.374 16.864-11.433 9.323-2.858 32.375-10.51 44.985-19.636.532-.324 1.06-.864 1.62-1.43.913-1.006 2.83-3.067 5.038-5.126zm129.824 16.27l-1.723-.498c-2.823-1.31-5.802-2.606-8.876-3.86 4.335-2.03 7.89-4.024 10.532-5.946.433-.246.853-.678 1.25-1.093.96-1.023 2.232-2.402 3.733-3.804l.804-.74.78.756c8.3 7.79 17.45 12.066 25.797 12.066 8.78 0 17.836-3.8 26.17-10.994l.6-.493 1.677.81c1.537 1.42 4.33 3.44 5.578 4.065l1.44.697-.167.18.912.53c1.586.94 3.28 1.848 5.177 2.784 1.945.866 3.614 1.526 5.368 2.103.342.115 8.503 2.738 17.918 7.098l1.663.52c8.58 3.27 12.31 7.78 12.677 8.25 13.87 20.57 16.104 65.14 16.314 70.1-.102 6.887-2.012 8.658-2.49 8.965-26.1 11.68-63.556 16.062-79.318 17.456-1.425-20.452-6.47-68.634-23.33-93.698l-.715-.858c-3.416-4.234-10.898-10.227-21.773-14.394zm-9.764-74.457l.295-.35c1.32-.965 1.97-2.46 1.717-4.003-3.135-18.828-1.104-26.724-.396-28.703C217.4 62.25 234.596 54.434 237.96 53.05c.684-.26 1.992-.652 3.386-.886l.42-.105 2.594-.136.024.18.78-.07c.59-.047 1.153-.134 1.544-.22l.87-.196c.553.018 7.344.892 17.186 3.903l6.93 2.388c12.6 3.72 18.435 10.668 19.516 12.076 10.118 11.493 7.41 28.772 4.876 38.062-.276 1.15-.108 2.318.553 3.272l.558.72c.714.953 1.356 4.745-.835 12.93-.408 2.48-1.333 4.47-2.654 5.794-.54.558-.896 1.285-1.022 2.125-3.423 20.06-21.39 42.487-40.305 42.487-16.08 0-34.407-20.64-37.698-42.487-.132-.834-.486-1.56-1.08-2.225-1.333-1.39-2.204-3.42-2.738-6.482-1.6-5.675-1.768-10.263-.55-12.107zm-139.84-21.62l.436-.504c1.693-1.223 2.51-3.15 2.204-5.123-4.246-25.512-1.478-36.125-.517-38.788 7.378-22.666 30.64-33.253 35.213-35.135.955-.37 2.732-.904 4.606-1.204l.503-.116 3.837-.216.012.246.826-.087c.77-.072 1.513-.183 2.393-.363l.872-.207c.714.006 9.69 1.138 23.238 5.28l9.323 3.205c17.023 5.035 24.956 14.462 26.41 16.336 13.69 15.546 10.04 38.935 6.64 51.497-.39 1.447-.155 2.96.66 4.188l.758.973c1.25 1.672 1.72 7.27-1.067 17.627-.564 3.384-1.82 6.125-3.663 7.944-.667.72-1.108 1.66-1.297 2.714-4.633 27.122-28.943 57.458-54.542 57.458-21.76 0-46.572-27.913-51.05-57.438-.146-1.05-.582-2.018-1.356-2.847-1.858-1.928-3.05-4.705-3.777-8.83-2.154-7.768-2.367-14.016-.658-16.61z"/></svg>